<?xml version="1.0" encoding="utf-8"?>
<!-- Generator: Adobe Illustrator 25.2.0, SVG Export Plug-In . SVG Version: 6.00 Build 0)  -->
<svg version="1.1" id="Calque_1" xmlns="http://www.w3.org/2000/svg" xmlns:xlink="http://www.w3.org/1999/xlink" x="0px" y="0px"
	 width="128px" height="128px" viewBox="0 0 128 128" style="enable-background:new 0 0 128 128;" xml:space="preserve">
<style type="text/css">
	.st0{fill:#1D84FF;}
	.st1{fill:#0066E0;}
	.st2{fill:#002570;}
	.st3{fill:#003889;}
	.st4{fill:#003084;}
	.st5{fill:#D2E9FF;}
	.st6{fill:#BFD1DB;}
	.st7{fill:#0057D6;}
	.st8{fill:#3E9FFF;}
	.st9{fill:#FF9248;}
	.st10{fill:#FF6600;}
	.st11{fill:#FFFFFF;}
</style>
<rect y="77" class="st0" width="126.1" height="51"/>
<rect x="8.7" y="84.9" class="st1" width="108.4" height="35"/>
<rect y="34.6" class="st2" width="126.1" height="42.5"/>
<rect x="3.4" y="40.1" class="st3" width="119.3" height="36.9"/>
<rect y="17.5" class="st1" width="126.1" height="17.1"/>
<polygon class="st0" points="123.5,21.8 0,21.8 0,17.5 126.1,17.5 "/>
<path class="st4" d="M38.2,17.5h-9v-13c0-2.6,2.1-4.5,4.5-4.5h4.5V17.5z"/>
<path class="st4" d="M87.7,17.5h9v-13c0-2.6-2.1-4.5-4.5-4.5h-4.5C87.7,0,87.7,17.5,87.7,17.5z"/>
<rect x="38.2" class="st1" width="49.3" height="8.7"/>
<rect x="22.2" y="50.8" class="st5" width="10.5" height="26.2"/>
<path class="st5" d="M32,26.9v10.9c0,2.3-1.9,4.5-4.5,4.5c-2.3,0-4.5-1.9-4.5-4.5V26.7c-14.5,4.9-11.3,26.5,4.3,26.7
	C42.9,53.1,46.3,32,32,26.9z"/>
<rect x="58.5" y="33.1" class="st6" width="8.5" height="25.2"/>
<polygon class="st5" points="62.9,26 58.5,33.1 67.2,33.1 "/>
<polygon class="st0" points="54.2,58.2 71.9,58.2 71.9,64.6 69.5,69.5 69.5,77 56.1,77 56.1,69.1 54.2,64.4 "/>
<polygon class="st7" points="69.8,77 56.3,77 56.1,73.6 69.5,73.6 "/>
<path class="st8" d="M62.7,66.8h-8.3c-1.3,0-2.3-1.1-2.3-2.3c0-1.3,1.1-2.3,2.3-2.3h8.3C65.7,62.3,65.7,66.8,62.7,66.8z"/>
<rect x="94.3" y="68.5" class="st9" width="13.4" height="9"/>
<path class="st10" d="M105.6,58.9V48.6h-9v10.2c0,0-1.1,5.5-2.3,7.5v2.1h13.4v-2.1C106.7,64.4,105.6,58.9,105.6,58.9z"/>
<path class="st6" d="M89.8,28.6c4.7-0.9,9-3.2,13.9-2.6l6.2,0.4v10c0,0-4.5,2.6-4.5,12.4h-9c0,0,0.2-11.7-6.8-11.7v-8.5H89.8z"/>
<polygon class="st5" points="89.8,39.3 79.6,39.9 79.6,26 89.8,26.7 "/>
<g>
	<path class="st10" d="M24.1,90.9c-3.2,0-5.5,2.6-5.5,5.5v17.5h15.8c3.2,0,5.5-2.6,5.5-5.5V90.9H24.1z"/>
	<path class="st11" d="M30.5,98.6c0,0,0.2-4.1,4.1-4.1h1.7v-1.7h-1.9c-5.8,0-5.8,5.8-5.8,5.8v3.2c0,0-0.2,4.1-4.1,4.1h-1.9v1.7
		c1.9,0,4.5,0,5.8-1.3c-0.2,1.1-1.3,2.8-3.6,2.8h-4.3v1.9h4.1c4.7,0,5.5-3.6,5.8-5.1c1.7,1.7,4.1,1.7,4.1,1.7h1.9v-1.9h-1.9
		c0,0-4.1,0-4.1-3.8L30.5,98.6L30.5,98.6z"/>
	<path class="st11" d="M45,90.9v13.2c0.4,10.9,10.7,9.8,13.2,9.8v-3.2c-2.3-0.2-9.6,1.1-9.8-6.6V90.9H45z"/>
	<path class="st11" d="M97.5,94.3h9.8v-3.2h-9.8c-10.9,0.4-9.8,10.7-9.8,13.2l0,0l0,0h13.2v-3.2h-9.8l0,0
		C91.1,100.7,91.1,94.3,97.5,94.3z"/>
	<path class="st11" d="M87.7,113.9h9.8c10.9-0.4,9.8-10.7,9.8-13.2h-3.4c-0.2,2.3,1.1,9.6-6.6,9.8h-9.8L87.7,113.9L87.7,113.9z"/>
	<path class="st11" d="M84.5,90.9h-3.4v16.4c-0.2,4.5-4.7,3-6.6,3.2v-9.4h-3.2v9.4c-1.9-0.2-6.4,1.1-6.6-3.2V95.8h-3.2v11.5
		c0,6.6,6.6,6.6,6.6,6.6h16.4v-6.6l0,0l0,0L84.5,90.9L84.5,90.9z"/>
</g>
<path class="st5" d="M110.1,26.5c0,0,17.7-0.2,17.9,13.2c0,0-6.6-9.6-17.9-3.4V26.5z"/>
</svg>
